<svg xmlns="http://www.w3.org/2000/svg" viewBox="0 0 64 64" width="22" height="22" aria-label="Dead cat icon" role="img" fill="none" stroke="currentColor" stroke-linecap="round" stroke-linejoin="round">
  <!-- 头部外轮廓（线条风格，单色） -->
  <path d="M20 10 L28 2 L34 12 L40 2 L48 10 C58 16 62 30 58 42 C54 54 44 62 32 62 C20 62 10 54 6 42 C2 30 6 16 20 10Z" stroke-width="2"/>

  <!-- 耳朵内侧（轻微线条） -->
  <path d="M21 10 L28 2 L27 14 Z" stroke-width="1.2" fill="none"/>
  <path d="M39 2 L47 10 L37 14 Z" stroke-width="1.2" fill="none"/>

  <!-- X 形眼睛（表示“已死/昏迷”） -->
  <!-- 左眼 X -->
  <path d="M18.5 28.5 L25.5 35.5" stroke-width="2"/>
  <path d="M25.5 28.5 L18.5 35.5" stroke-width="2"/>
  <!-- 右眼 X -->
  <path d="M38.5 28.5 L45.5 35.5" stroke-width="2"/>
  <path d="M45.5 28.5 L38.5 35.5" stroke-width="2"/>

  <!-- 鼻子（小实心三角） -->
  <path d="M30 38 L34 38 L32 41 Z" fill="currentColor" stroke="none"/>

  <!-- 嘴巴：伸舌头（舌头为实心，造成“挂舌”效果） -->
  <path d="M32 42 Q29 46 26 44" stroke-width="1.6" fill="none"/>
  <path d="M32 42 Q35 46 38 44" stroke-width="1.6" fill="none"/>
  <!-- 舌头 -->
  <rect x="29.5" y="44.5" width="5" height="3.5" rx="0.8" fill="currentColor" stroke="none" transform="rotate(6 32 46)"/>

  <!-- 胡须（保留但较细） -->
  <path d="M18 36 h-6" stroke-width="1.4"/>
  <path d="M18 40 h-6" stroke-width="1.4"/>
  <path d="M46 36 h6" stroke-width="1.4"/>
  <path d="M46 40 h6" stroke-width="1.4"/>
</svg>
